# Made in Blockbench 5.1.4
mtllib KG.mtl

o left lower arm
v -0.21875 0.6875 0.0625
v -0.21875 0.6875 -0.0625
v -0.21875 0.4375 0.0625
v -0.21875 0.4375 -0.0625
v -0.34375 0.6875 0.0625
v -0.34375 0.6875 -0.0625
v -0.34375 0.4375 0.0625
v -0.34375 0.4375 -0.0625
vt 0.15625 0.703125
vt 0.125 0.703125
vt 0.125 0.640625
vt 0.15625 0.640625
vt 0.203125 0.640625
vt 0.203125 0.703125
vt 0.171875 0.703125
vt 0.171875 0.640625
vt 0 0.515625
vt 0.03125 0.515625
vt 0.03125 0.546875
vt 0 0.546875
vt 0.484375 0.890625
vt 0.484375 0.921875
vt 0.453125 0.921875
vt 0.453125 0.890625
vt 0.34375 0.859375
vt 0.34375 0.921875
vt 0.3125 0.921875
vt 0.3125 0.859375
vt 0.34375 0.84375
vt 0.3125 0.84375
vt 0.3125 0.78125
vt 0.34375 0.78125
vn 1 0 0
vn -1 0 0
vn 0 1 0
vn 0 -1 0
vn 0 0 1
vn 0 0 -1
usemtl m_6d4f864b-60d5-6621-f77b-81e78341063c
f 2/1/1 1/2/1 3/3/1 4/4/1
f 7/5/2 5/6/2 6/7/2 8/8/2
f 5/9/3 1/10/3 2/11/3 6/12/3
f 4/13/4 3/14/4 7/15/4 8/16/4
f 3/17/5 1/18/5 5/19/5 7/20/5
f 6/21/6 2/22/6 4/23/6 8/24/6
o left upper arm
v -0.21875 0.9375 0.0625
v -0.21875 0.9375 -0.0625
v -0.21875 0.6875 0.0625
v -0.21875 0.6875 -0.0625
v -0.34375 0.9375 0.0625
v -0.34375 0.9375 -0.0625
v -0.34375 0.6875 0.0625
v -0.34375 0.6875 -0.0625
vt 0.265625 0.71875
vt 0.234375 0.71875
vt 0.234375 0.65625
vt 0.265625 0.65625
vt 0.3125 0.65625
vt 0.3125 0.71875
vt 0.28125 0.71875
vt 0.28125 0.65625
vt 0.125 0.765625
vt 0.15625 0.765625
vt 0.15625 0.796875
vt 0.125 0.796875
vt 0.359375 0.53125
vt 0.359375 0.5625
vt 0.328125 0.5625
vt 0.328125 0.53125
vt 0.03125 0.640625
vt 0.03125 0.703125
vt 0 0.703125
vt 0 0.640625
vt 0.328125 1
vt 0.296875 1
vt 0.296875 0.9375
vt 0.328125 0.9375
vn 1 0 0
vn -1 0 0
vn 0 1 0
vn 0 -1 0
vn 0 0 1
vn 0 0 -1
usemtl m_6d4f864b-60d5-6621-f77b-81e78341063c
f 10/25/7 9/26/7 11/27/7 12/28/7
f 15/29/8 13/30/8 14/31/8 16/32/8
f 13/33/9 9/34/9 10/35/9 14/36/9
f 12/37/10 11/38/10 15/39/10 16/40/10
f 11/41/11 9/42/11 13/43/11 15/44/11
f 14/45/12 10/46/12 12/47/12 16/48/12
o right lower arm
v 0.21875 0.6875 0.0625
v 0.21875 0.6875 -0.0625
v 0.21875 0.4375 0.0625
v 0.21875 0.4375 -0.0625
v 0.34375 0.6875 0.0625
v 0.34375 0.6875 -0.0625
v 0.34375 0.4375 0.0625
v 0.34375 0.4375 -0.0625
vt 0.46875 0.9375
vt 0.46875 1
vt 0.4375 1
vt 0.4375 0.9375
vt 0.21875 0.5625
vt 0.1875 0.5625
vt 0.1875 0.5
vt 0.21875 0.5
vt 0.375 0.53125
vt 0.375 0.5
vt 0.40625 0.5
vt 0.40625 0.53125
vt 0.515625 1
vt 0.484375 1
vt 0.484375 0.96875
vt 0.515625 0.96875
vt 0.265625 0.5625
vt 0.234375 0.5625
vt 0.234375 0.5
vt 0.265625 0.5
vt 0.3125 0.5
vt 0.3125 0.5625
vt 0.28125 0.5625
vt 0.28125 0.5
vn -1 0 0
vn 1 0 0
vn 0 1 0
vn 0 -1 0
vn 0 0 1
vn 0 0 -1
usemtl m_6d4f864b-60d5-6621-f77b-81e78341063c
f 19/49/13 17/50/13 18/51/13 20/52/13
f 22/53/14 21/54/14 23/55/14 24/56/14
f 18/57/15 17/58/15 21/59/15 22/60/15
f 23/61/16 19/62/16 20/63/16 24/64/16
f 21/65/17 17/66/17 19/67/17 23/68/17
f 20/69/18 18/70/18 22/71/18 24/72/18
o right upper arm
v 0.21875 0.9375 0.0625
v 0.21875 0.9375 -0.0625
v 0.21875 0.6875 0.0625
v 0.21875 0.6875 -0.0625
v 0.34375 0.9375 0.0625
v 0.34375 0.9375 -0.0625
v 0.34375 0.6875 0.0625
v 0.34375 0.6875 -0.0625
vt 0.4375 0.78125
vt 0.4375 0.84375
vt 0.40625 0.84375
vt 0.40625 0.78125
vt 0.4375 0.6875
vt 0.40625 0.6875
vt 0.40625 0.625
vt 0.4375 0.625
vt 0.46875 0.78125
vt 0.46875 0.75
vt 0.5 0.75
vt 0.5 0.78125
vt 0.5 0.734375
vt 0.46875 0.734375
vt 0.46875 0.703125
vt 0.5 0.703125
vt 0.4375 0.609375
vt 0.40625 0.609375
vt 0.40625 0.546875
vt 0.4375 0.546875
vt 0.453125 0.703125
vt 0.453125 0.765625
vt 0.421875 0.765625
vt 0.421875 0.703125
vn -1 0 0
vn 1 0 0
vn 0 1 0
vn 0 -1 0
vn 0 0 1
vn 0 0 -1
usemtl m_6d4f864b-60d5-6621-f77b-81e78341063c
f 27/73/19 25/74/19 26/75/19 28/76/19
f 30/77/20 29/78/20 31/79/20 32/80/20
f 26/81/21 25/82/21 29/83/21 30/84/21
f 31/85/22 27/86/22 28/87/22 32/88/22
f 29/89/23 25/90/23 27/91/23 31/92/23
f 28/93/24 26/94/24 30/95/24 32/96/24
o head
v -0.1125 1.25 0.10625
v -0.1125 1.25 -0.09375
v -0.125 1.04375 0.08125
v -0.125 1.04375 -0.10625
v -0.0625 1.25 -0.1125
v -0.0625 1 -0.125
v -0.0625 1.04375 0.08125
v -0.0625 1.25 0.10625
v -0.0625 1 -0.09375
v -0.125 1.04375 -0.084375
v -0.1125 1.25 0.009375
v -0.0625 1.25 0
v -0.125 1.125 -0.021875
v -0.125 1.125 0.125
v -0.0625 1.125 0.125
v -0.0625 1.125 -0.125
v -0.125 1.125 -0.10625
v -0.125 1.225 -0.00625
v -0.125 1.225 -0.10625
v -0.0625 1.225 -0.125
v -0.0625 1.225 0.125
v -0.125 1.225 0.125
v 0.1125 1.25 0.10625
v 0.1125 1.25 -0.09375
v 0.125 1.04375 0.08125
v 0.125 1.04375 -0.10625
v 0.0625 1.25 -0.1125
v 0.0625 1 -0.125
v 0.0625 1.04375 0.08125
v 0.0625 1.25 0.10625
v 0.0625 1 -0.09375
v 0.125 1.04375 -0.084375
v 0.1125 1.25 0.009375
v 0.0625 1.25 0
v 0.125 1.125 -0.021875
v 0.125 1.125 0.125
v 0.0625 1.125 0.125
v 0.0625 1.125 -0.125
v 0.125 1.125 -0.10625
v 0.125 1.225 -0.00625
v 0.125 1.225 -0.10625
v 0.0625 1.225 -0.125
v 0.0625 1.225 0.125
v 0.125 1.225 0.125
vt 0.05078125 0.8390290625
vt 0.05078125 0.8640290625
vt 0.01953125 0.8640290625
vt 0.01953125 0.8390290625
vt 0.1444975 0.8125
vt 0.1444975 0.8203125
vt 0.1132475 0.8203125
vt 0.1132475 0.8125
vt 0.28125 0.81875
vt 0.28125 0.84375
vt 0.25 0.84375
vt 0.25 0.81875
vt 0.25 0.921875
vt 0.25 0.89375
vt 0.28125 0.89375
vt 0.28125 0.921875
vt 0.1083721875 0.86514515625
vt 0.1132475 0.8203125
vt 0.14431421875 0.8236907812500001
vt 0.1394390625 0.8685234374999999
vt 0.28125 0.8671875
vt 0.28125 0.89375
vt 0.25 0.89375
vt 0.25 0.8671875
vt 0.28125 0.79568125
vt 0.28125 0.81875
vt 0.25 0.81875
vt 0.25 0.79568125
vt 0.05078125 0.8077790625
vt 0.05078125 0.8390290625
vt 0.01953125 0.8390290625
vt 0.01953125 0.8077790625
vt 0.0186275 0.8709578125
vt 0.01953125 0.8640290625
vt 0.05051875 0.86807125
vt 0.04961484375 0.875
vt 0.5 0.953125
vt 0.5 0.9453125
vt 0.53125 0.9453125
vt 0.53125 0.953125
vt 0.24609375 0.9930125
vt 0.22109375 0.9930125
vt 0.22109375 0.9680124999999999
vt 0.2421875 0.9680124999999999
vt 0.1132475 0.8203125
vt 0.0957771875 0.82265625
vt 0.0957771875 0.8171875
vt 0.1132475 0.8125
vt 0.25 0.84375
vt 0.234375 0.84375
vt 0.234375 0.81875
vt 0.25 0.81875
vt 0.0670953125 0.8640290625
vt 0.05078125 0.8640290625
vt 0.05078125 0.8390290625
vt 0.0670953125 0.8390290625
vt 0.2375 0.89140625
vt 0.25 0.89375
vt 0.25 0.921875
vt 0.2375 0.9171875
vt 0.09577875 0.82265609375
vt 0.1132475 0.8203125
vt 0.10842875 0.86462515625
vt 0.094390625 0.8641559375
vt 0.27890625 0.9930125
vt 0.24609375 0.9930125
vt 0.2421875 0.9680124999999999
vt 0.27890625 0.9680124999999999
vt 0.25 0.89375
vt 0.2375 0.89140625
vt 0.2375 0.8671875
vt 0.25 0.8671875
vt 0.2421875 0.9680124999999999
vt 0.2265625 0.9445749999999999
vt 0.26796875 0.9477
vt 0.25 0.81875
vt 0.234375 0.81875
vt 0.234375 0.79568125
vt 0.25 0.79568125
vt 0.0670953125 0.8390290625
vt 0.05078125 0.8390290625
vt 0.05078125 0.8077790625
vt 0.0670953125 0.8155915625
vt 0.2421875 0.9680124999999999
vt 0.22109375 0.9680124999999999
vt 0.22109375 0.9445749999999999
vt 0.2265625 0.9445749999999999
vt 0.27890625 0.9680124999999999
vt 0.2421875 0.9680124999999999
vt 0.26796875 0.9477
vt 0.22109375 0.9930125
vt 0.24609375 0.9930125
vt 0.25 1
vt 0.22421875 1
vt 0.05078125 0.8640290625
vt 0.0670953125 0.8640290625
vt 0.065 0.87134625
vt 0.0516796875 0.87095875
vt 0.484375 0.9453125
vt 0.5 0.9453125
vt 0.5 0.953125
vt 0.4875 0.953125
vt 0.24609375 0.9930125
vt 0.27890625 0.9930125
vt 0.27421875 1
vt 0.25 1
vt 0.06015625 0.7492624999999999
vt 0.06015625 0.7742625
vt 0.03515625 0.7742625
vt 0.0390625 0.7492624999999999
vt 0.1619678125 0.8171875
vt 0.1619678125 0.82265625
vt 0.1444975 0.8203125
vt 0.1444975 0.8125
vt 0.296875 0.81875
vt 0.296875 0.84375
vt 0.28125 0.84375
vt 0.28125 0.81875
vt 0.01953125 0.8390290625
vt 0.01953125 0.8640290625
vt 0.0032171875 0.8640290625
vt 0.0032171875 0.8390290625
vt 0.28125 0.921875
vt 0.28125 0.89375
vt 0.29375 0.89140625
vt 0.29375 0.9171875
vt 0.14924625 0.86515921875
vt 0.144498125 0.82031265625
vt 0.1619678125 0.82265625
vt 0.163421875 0.86365828125
vt 0.0390625 0.7492624999999999
vt 0.03515625 0.7742625
vt 0.00234375 0.7742625
vt 0.00234375 0.7492624999999999
vt 0.29375 0.8671875
vt 0.29375 0.89140625
vt 0.28125 0.89375
vt 0.28125 0.8671875
vt 0.0546875 0.7258249999999999
vt 0.0390625 0.7492624999999999
vt 0.01328125 0.72895
vt 0.296875 0.79568125
vt 0.296875 0.81875
vt 0.28125 0.81875
vt 0.28125 0.79568125
vt 0.01953125 0.8077790625
vt 0.01953125 0.8390290625
vt 0.0032171875 0.8390290625
vt 0.0032171875 0.8155915625
vt 0.06015625 0.7258249999999999
vt 0.06015625 0.7492624999999999
vt 0.0390625 0.7492624999999999
vt 0.0546875 0.7258249999999999
vt 0.0390625 0.7492624999999999
vt 0.00234375 0.7492624999999999
vt 0.01328125 0.72895
vt 0.03125 0.78125
vt 0.03515625 0.7742625
vt 0.06015625 0.7742625
vt 0.05703125 0.78125
vt 0.0053125 0.8713915624999999
vt 0.0032171875 0.8640290625
vt 0.01953125 0.8640290625
vt 0.0186328125 0.8709165624999999
vt 0.53125 0.953125
vt 0.53125 0.9453125
vt 0.546875 0.9453125
vt 0.54375 0.953125
vt 0.00703125 0.78125
vt 0.00234375 0.7742625
vt 0.03515625 0.7742625
vt 0.03125 0.78125
vn 0 0 -1
vn 0 -1 0
vn 0 0 1
vn 0 1 0
vn 0 -0.970142500145332 0.242535625036333
vn 0 1 0
vn 0 -0.4740998230350174 0.8804710999221753
vn 0 0 -1
vn 0 0.447213595499958 -0.894427190999916
vn 0 0.6000000000000002 0.7999999999999999
vn -1 0 0
vn -0.5734623443633283 -0.8192319205190407 0
vn 0 0 1
vn -0.28734788556634544 0 -0.9578262852211514
vn 0 1 0
vn -0.540675602548492 -0.8161141170543277 0.20402852926358186
vn -1 0 0
vn 0 1 0
vn -1 0 0
vn 0 -0.4740998230350174 0.8804710999221753
vn -0.2873478855663455 0 -0.9578262852211515
vn -1 0 0
vn -1 0 0
vn -0.8944271909999161 0.44721359549995804 0
vn -0.24393468845452257 0.5285251583181322 -0.8131156281817418
vn 0 0.6000000000000002 0.7999999999999999
vn -0.8944271909999161 0.44721359549995804 0
vn 1 0 0
vn 0.5734623443633283 -0.8192319205190407 0
vn 0 0 1
vn 0.28734788556634544 0 -0.9578262852211514
vn 0 1 0
vn 0.5406756025484921 -0.8161141170543276 0.2040285292635819
vn 1 0 0
vn 0 1 0
vn 1 0 0
vn 0 -0.4740998230350174 0.8804710999221753
vn 0.2873478855663455 0 -0.9578262852211515
vn 1 0 0
vn 1 0 0
vn 0.8944271909999161 0.44721359549995804 0
vn 0.24393468845452257 0.5285251583181322 -0.8131156281817418
vn 0 0.6000000000000002 0.7999999999999999
vn 0.8944271909999161 0.44721359549995804 0
usemtl m_6d4f864b-60d5-6621-f77b-81e78341063c
f 48/97/25 52/98/25 74/99/25 70/100/25
f 60/101/26 63/102/26 41/103/26 38/104/26
f 69/105/27 75/106/27 53/107/27 47/108/27
f 37/109/28 44/110/28 66/111/28 59/112/28
f 39/113/29 41/114/29 63/115/29 61/116/29
f 62/117/30 66/118/30 44/119/30 40/120/30
f 61/121/31 69/122/31 47/123/31 39/124/31
f 38/125/32 48/126/32 70/127/32 60/128/32
f 59/129/33 74/130/33 52/131/33 37/132/33
f 40/133/34 53/134/34 75/135/34 62/136/34
f 50/137/35 51/138/35 49/139/35 45/140/35
f 41/141/36 42/142/36 36/143/36 38/144/36
f 53/145/37 54/146/37 46/147/37 47/148/37
f 51/149/38 52/150/38 48/151/38 49/152/38
f 43/153/39 44/154/39 37/155/39 34/156/39
f 42/157/40 41/158/40 39/159/40 35/160/40
f 54/161/41 50/162/41 45/163/41 46/164/41
f 44/165/42 43/166/42 33/167/42 40/168/42
f 45/169/43 42/170/43 35/171/43
f 47/172/44 46/173/44 35/174/44 39/175/44
f 49/176/45 48/177/45 38/178/45 36/179/45
f 45/180/46 49/181/46 36/182/46 42/183/46
f 46/184/47 45/185/47 35/186/47
f 51/187/48 50/188/48 43/189/48 34/190/48
f 52/191/49 51/192/49 34/193/49 37/194/49
f 54/195/50 53/196/50 40/197/50 33/198/50
f 50/199/51 54/200/51 33/201/51 43/202/51
f 71/203/52 73/204/52 72/205/52 67/206/52
f 58/207/53 64/208/53 63/209/53 60/210/53
f 68/211/54 76/212/54 75/213/54 69/214/54
f 70/215/55 74/216/55 73/217/55 71/218/55
f 59/219/56 66/220/56 65/221/56 56/222/56
f 61/223/57 63/224/57 64/225/57 57/226/57
f 67/227/58 72/228/58 76/229/58 68/230/58
f 55/231/59 65/232/59 66/233/59 62/234/59
f 64/235/60 67/236/60 57/237/60
f 57/238/61 68/239/61 69/240/61 61/241/61
f 60/242/62 70/243/62 71/244/62 58/245/62
f 58/246/63 71/247/63 67/248/63 64/249/63
f 67/250/64 68/251/64 57/252/64
f 65/253/65 72/254/65 73/255/65 56/256/65
f 56/257/66 73/258/66 74/259/66 59/260/66
f 62/261/67 75/262/67 76/263/67 55/264/67
f 55/265/68 76/266/68 72/267/68 65/268/68
o left ear
v -0.125 1.15625 0
v -0.125 1.15625 -0.03125
v -0.125 1.09375 0
v -0.125 1.09375 -0.03125
v -0.15625 1.15625 0
v -0.15625 1.15625 -0.03125
v -0.15625 1.09375 0
v -0.15625 1.09375 -0.03125
vt 0.3828125 0.6875
vt 0.375 0.6875
vt 0.375 0.671875
vt 0.3828125 0.671875
vt 0.1953125 0.578125
vt 0.1953125 0.59375
vt 0.1875 0.59375
vt 0.1875 0.578125
vt 0.5 0.5859375
vt 0.5078125 0.5859375
vt 0.5078125 0.59375
vt 0.5 0.59375
vt 0.4296875 0.4921875
vt 0.4296875 0.5
vt 0.421875 0.5
vt 0.421875 0.4921875
vt 0.3828125 0.546875
vt 0.3828125 0.5625
vt 0.375 0.5625
vt 0.375 0.546875
vt 0.4296875 0.53125
vt 0.421875 0.53125
vt 0.421875 0.515625
vt 0.4296875 0.515625
vn 1 0 0
vn -1 0 0
vn 0 1 0
vn 0 -1 0
vn 0 0 1
vn 0 0 -1
usemtl m_6d4f864b-60d5-6621-f77b-81e78341063c
f 78/269/69 77/270/69 79/271/69 80/272/69
f 83/273/70 81/274/70 82/275/70 84/276/70
f 81/277/71 77/278/71 78/279/71 82/280/71
f 80/281/72 79/282/72 83/283/72 84/284/72
f 79/285/73 77/286/73 81/287/73 83/288/73
f 82/289/74 78/290/74 80/291/74 84/292/74
o right ear
v 0.125 1.15625 0
v 0.125 1.15625 -0.03125
v 0.125 1.09375 0
v 0.125 1.09375 -0.03125
v 0.15625 1.15625 0
v 0.15625 1.15625 -0.03125
v 0.15625 1.09375 0
v 0.15625 1.09375 -0.03125
vt 0.5078125 0.8125
vt 0.5078125 0.828125
vt 0.5 0.828125
vt 0.5 0.8125
vt 0.5078125 0.6875
vt 0.5 0.6875
vt 0.5 0.671875
vt 0.5078125 0.671875
vt 0.5 0.5625
vt 0.5 0.5546875
vt 0.5078125 0.5546875
vt 0.5078125 0.5625
vt 0.4609375 0.5
vt 0.453125 0.5
vt 0.453125 0.4921875
vt 0.4609375 0.4921875
vt 0.5078125 0.65625
vt 0.5 0.65625
vt 0.5 0.640625
vt 0.5078125 0.640625
vt 0.5078125 0.609375
vt 0.5078125 0.625
vt 0.5 0.625
vt 0.5 0.609375
vn -1 0 0
vn 1 0 0
vn 0 1 0
vn 0 -1 0
vn 0 0 1
vn 0 0 -1
usemtl m_6d4f864b-60d5-6621-f77b-81e78341063c
f 87/293/75 85/294/75 86/295/75 88/296/75
f 90/297/76 89/298/76 91/299/76 92/300/76
f 86/301/77 85/302/77 89/303/77 90/304/77
f 91/305/78 87/306/78 88/307/78 92/308/78
f 89/309/79 85/310/79 87/311/79 91/312/79
f 88/313/80 86/314/80 90/315/80 92/316/80
o right ear
v 0.125 1.15625 0
v 0.125 1.15625 -0.03125
v 0.125 1.09375 0
v 0.125 1.09375 -0.03125
v 0.15625 1.15625 0
v 0.15625 1.15625 -0.03125
v 0.15625 1.09375 0
v 0.15625 1.09375 -0.03125
vt 0.375 0.671875
vt 0.375 0.6875
vt 0.3828125 0.6875
vt 0.3828125 0.671875
vt 0.1875 0.59375
vt 0.1953125 0.59375
vt 0.1953125 0.578125
vt 0.1875 0.578125
vt 0.5078125 0.59375
vt 0.5078125 0.5859375
vt 0.5 0.5859375
vt 0.5 0.59375
vt 0.421875 0.5
vt 0.4296875 0.5
vt 0.4296875 0.4921875
vt 0.421875 0.4921875
vt 0.375 0.5625
vt 0.3828125 0.5625
vt 0.3828125 0.546875
vt 0.375 0.546875
vt 0.421875 0.515625
vt 0.421875 0.53125
vt 0.4296875 0.53125
vt 0.4296875 0.515625
vn -1 0 0
vn 1 0 0
vn 0 1 0
vn 0 -1 0
vn 0 0 1
vn 0 0 -1
usemtl m_6d4f864b-60d5-6621-f77b-81e78341063c
f 95/317/81 93/318/81 94/319/81 96/320/81
f 98/321/82 97/322/82 99/323/82 100/324/82
f 94/325/83 93/326/83 97/327/83 98/328/83
f 99/329/84 95/330/84 96/331/84 100/332/84
f 97/333/85 93/334/85 95/335/85 99/336/85
f 96/337/86 94/338/86 98/339/86 100/340/86
o left ear
v -0.125 1.15625 0
v -0.125 1.15625 -0.03125
v -0.125 1.09375 0
v -0.125 1.09375 -0.03125
v -0.15625 1.15625 0
v -0.15625 1.15625 -0.03125
v -0.15625 1.09375 0
v -0.15625 1.09375 -0.03125
vt 0.5 0.828125
vt 0.5078125 0.828125
vt 0.5078125 0.8125
vt 0.5 0.8125
vt 0.5 0.671875
vt 0.5 0.6875
vt 0.5078125 0.6875
vt 0.5078125 0.671875
vt 0.5078125 0.5546875
vt 0.5 0.5546875
vt 0.5 0.5625
vt 0.5078125 0.5625
vt 0.453125 0.4921875
vt 0.453125 0.5
vt 0.4609375 0.5
vt 0.4609375 0.4921875
vt 0.5 0.640625
vt 0.5 0.65625
vt 0.5078125 0.65625
vt 0.5078125 0.640625
vt 0.5 0.625
vt 0.5078125 0.625
vt 0.5078125 0.609375
vt 0.5 0.609375
vn 1 0 0
vn -1 0 0
vn 0 1 0
vn 0 -1 0
vn 0 0 1
vn 0 0 -1
usemtl m_6d4f864b-60d5-6621-f77b-81e78341063c
f 102/341/87 101/342/87 103/343/87 104/344/87
f 107/345/88 105/346/88 106/347/88 108/348/88
f 105/349/89 101/350/89 102/351/89 106/352/89
f 104/353/90 103/354/90 107/355/90 108/356/90
f 103/357/91 101/358/91 105/359/91 107/360/91
f 106/361/92 102/362/92 104/363/92 108/364/92
o body
v 0.1875 0.9375 0.0625
v 0.1875 0.9375 -0.0625
v 0.1875 0.5 0.0625
v 0.1875 0.5 -0.0625
v -0.1875 0.9375 0.0625
v -0.1875 0.9375 -0.0625
v -0.1875 0.5 0.0625
v -0.1875 0.5 -0.0625
vt 0.21875 0.875
vt 0.1875 0.875
vt 0.1875 0.765625
vt 0.21875 0.765625
vt 0.234375 0.734375
vt 0.328125 0.734375
vt 0.328125 0.765625
vt 0.234375 0.765625
vt 0.21875 0.71875
vt 0.21875 0.75
vt 0.125 0.75
vt 0.125 0.71875
vt 0.09375 0.890625
vt 0.09375 1
vt 0 1
vt 0 0.890625
vt 0.203125 1
vt 0.109375 1
vt 0.109375 0.890625
vt 0.203125 0.890625
vt 0.109375 0.6875
vt 0.109375 0.796875
vt 0.078125 0.796875
vt 0.078125 0.6875
vn 1 0 0
vn 0 1 0
vn 0 -1 0
vn 0 0 1
vn 0 0 -1
vn -1 0 0
usemtl m_6d4f864b-60d5-6621-f77b-81e78341063c
f 110/365/93 109/366/93 111/367/93 112/368/93
f 113/369/94 109/370/94 110/371/94 114/372/94
f 112/373/95 111/374/95 115/375/95 116/376/95
f 111/377/96 109/378/96 113/379/96 115/380/96
f 114/381/97 110/382/97 112/383/97 116/384/97
f 115/385/98 113/386/98 114/387/98 116/388/98
o left foot
v -0.0625 0.0625 -0.0625
v -0.0625 0.03125 -0.125
v -0.0625 0 -0.0625
v -0.0625 0 -0.125
v -0.1875 0.0625 -0.0625
v -0.1875 0.03125 -0.125
v -0.1875 0 -0.0625
v -0.1875 0 -0.125
vt 0.0625 0.6953125
vt 0.046875 0.703125
vt 0.046875 0.6875
vt 0.0625 0.6875
vt 0.109375 0.65625
vt 0.109375 0.671875
vt 0.09375 0.6640625
vt 0.09375 0.65625
vt 0.03125 0.5
vt 0 0.5
vt 0 0.484375
vt 0.03125 0.484375
vt 0.078125 0.5
vt 0.078125 0.515625
vt 0.046875 0.515625
vt 0.046875 0.5
vt 0.171875 0.5
vt 0.140625 0.5
vt 0.140625 0.4921875
vt 0.171875 0.4921875
vt 0.359375 0.5
vt 0.359375 0.515625
vt 0.328125 0.515625
vt 0.328125 0.5
vn 1 0 0
vn -1 0 0
vn 0 0.8944271909999161 -0.44721359549995804
vn 0 -1 0
vn 0 0 -1
vn 0 0 1
usemtl m_6d4f864b-60d5-6621-f77b-81e78341063c
f 118/389/99 117/390/99 119/391/99 120/392/99
f 123/393/100 121/394/100 122/395/100 124/396/100
f 121/397/101 117/398/101 118/399/101 122/400/101
f 120/401/102 119/402/102 123/403/102 124/404/102
f 122/405/103 118/406/103 120/407/103 124/408/103
f 119/409/104 117/410/104 121/411/104 123/412/104
o left lower leg
v -0.0625 0.25 0.0625
v -0.0625 0.25 -0.0625
v -0.0625 0 0.0625
v -0.0625 0 -0.0625
v -0.1875 0.25 0.0625
v -0.1875 0.25 -0.0625
v -0.1875 0 0.0625
v -0.1875 0 -0.0625
vt 0.078125 0.671875
vt 0.046875 0.671875
vt 0.046875 0.609375
vt 0.078125 0.609375
vt 0.359375 0.65625
vt 0.359375 0.71875
vt 0.328125 0.71875
vt 0.328125 0.65625
vt 0.09375 0.515625
vt 0.125 0.515625
vt 0.125 0.546875
vt 0.09375 0.546875
vt 0.484375 0.84375
vt 0.484375 0.875
vt 0.453125 0.875
vt 0.453125 0.84375
vt 0.375 0.9375
vt 0.375 1
vt 0.34375 1
vt 0.34375 0.9375
vt 0.390625 0.921875
vt 0.359375 0.921875
vt 0.359375 0.859375
vt 0.390625 0.859375
vn 1 0 0
vn -1 0 0
vn 0 1 0
vn 0 -1 0
vn 0 0 1
vn 0 0 -1
usemtl m_6d4f864b-60d5-6621-f77b-81e78341063c
f 126/413/105 125/414/105 127/415/105 128/416/105
f 131/417/106 129/418/106 130/419/106 132/420/106
f 129/421/107 125/422/107 126/423/107 130/424/107
f 128/425/108 127/426/108 131/427/108 132/428/108
f 127/429/109 125/430/109 129/431/109 131/432/109
f 130/433/110 126/434/110 128/435/110 132/436/110
o left upper leg
v -0.0625 0.5 0.0625
v -0.0625 0.5 -0.0625
v -0.0625 0.25 0.0625
v -0.0625 0.25 -0.0625
v -0.1875 0.5 0.0625
v -0.1875 0.5 -0.0625
v -0.1875 0.25 0.0625
v -0.1875 0.25 -0.0625
vt 0.390625 0.84375
vt 0.359375 0.84375
vt 0.359375 0.78125
vt 0.390625 0.78125
vt 0.25 0.578125
vt 0.25 0.640625
vt 0.21875 0.640625
vt 0.21875 0.578125
vt 0.140625 0.515625
vt 0.171875 0.515625
vt 0.171875 0.546875
vt 0.140625 0.546875
vt 0.484375 0.796875
vt 0.484375 0.828125
vt 0.453125 0.828125
vt 0.453125 0.796875
vt 0.296875 0.578125
vt 0.296875 0.640625
vt 0.265625 0.640625
vt 0.265625 0.578125
vt 0.34375 0.640625
vt 0.3125 0.640625
vt 0.3125 0.578125
vt 0.34375 0.578125
vn 1 0 0
vn -1 0 0
vn 0 1 0
vn 0 -1 0
vn 0 0 1
vn 0 0 -1
usemtl m_6d4f864b-60d5-6621-f77b-81e78341063c
f 134/437/111 133/438/111 135/439/111 136/440/111
f 139/441/112 137/442/112 138/443/112 140/444/112
f 137/445/113 133/446/113 134/447/113 138/448/113
f 136/449/114 135/450/114 139/451/114 140/452/114
f 135/453/115 133/454/115 137/455/115 139/456/115
f 138/457/116 134/458/116 136/459/116 140/460/116
o right foot
v 0.0625 0.0625 -0.0625
v 0.0625 0.03125 -0.125
v 0.0625 0 -0.0625
v 0.0625 0 -0.125
v 0.1875 0.0625 -0.0625
v 0.1875 0.03125 -0.125
v 0.1875 0 -0.0625
v 0.1875 0 -0.125
vt 0.359375 0.75
vt 0.359375 0.765625
vt 0.34375 0.7578125
vt 0.34375 0.75
vt 0.203125 0.6171875
vt 0.1875 0.625
vt 0.1875 0.609375
vt 0.203125 0.609375
vt 0.53125 0.875
vt 0.53125 0.890625
vt 0.5 0.890625
vt 0.5 0.875
vt 0.53125 0.921875
vt 0.5 0.921875
vt 0.5 0.90625
vt 0.53125 0.90625
vt 0.125 0.5
vt 0.09375 0.5
vt 0.09375 0.484375
vt 0.125 0.484375
vt 0.53125 0.8515625
vt 0.53125 0.859375
vt 0.5 0.859375
vt 0.5 0.8515625
vn -1 0 0
vn 1 0 0
vn 0 0.8944271909999161 -0.44721359549995804
vn 0 -1 0
vn 0 0 1
vn 0 0 -1
usemtl m_6d4f864b-60d5-6621-f77b-81e78341063c
f 143/461/117 141/462/117 142/463/117 144/464/117
f 146/465/118 145/466/118 147/467/118 148/468/118
f 142/469/119 141/470/119 145/471/119 146/472/119
f 147/473/120 143/474/120 144/475/120 148/476/120
f 145/477/121 141/478/121 143/479/121 147/480/121
f 144/481/122 142/482/122 146/483/122 148/484/122
o right lower leg
v 0.0625 0.25 0.0625
v 0.0625 0.25 -0.0625
v 0.0625 0 0.0625
v 0.0625 0 -0.0625
v 0.1875 0.25 0.0625
v 0.1875 0.25 -0.0625
v 0.1875 0 0.0625
v 0.1875 0 -0.0625
vt 0.40625 0.703125
vt 0.40625 0.765625
vt 0.375 0.765625
vt 0.375 0.703125
vt 0.421875 1
vt 0.390625 1
vt 0.390625 0.9375
vt 0.421875 0.9375
vt 0.453125 0.59375
vt 0.453125 0.5625
vt 0.484375 0.5625
vt 0.484375 0.59375
vt 0.484375 0.546875
vt 0.453125 0.546875
vt 0.453125 0.515625
vt 0.484375 0.515625
vt 0.078125 0.59375
vt 0.046875 0.59375
vt 0.046875 0.53125
vt 0.078125 0.53125
vt 0.4375 0.859375
vt 0.4375 0.921875
vt 0.40625 0.921875
vt 0.40625 0.859375
vn -1 0 0
vn 1 0 0
vn 0 1 0
vn 0 -1 0
vn 0 0 1
vn 0 0 -1
usemtl m_6d4f864b-60d5-6621-f77b-81e78341063c
f 151/485/123 149/486/123 150/487/123 152/488/123
f 154/489/124 153/490/124 155/491/124 156/492/124
f 150/493/125 149/494/125 153/495/125 154/496/125
f 155/497/126 151/498/126 152/499/126 156/500/126
f 153/501/127 149/502/127 151/503/127 155/504/127
f 152/505/128 150/506/128 154/507/128 156/508/128
o right upper leg
v 0.0625 0.5 0.0625
v 0.0625 0.5 -0.0625
v 0.0625 0.25 0.0625
v 0.0625 0.25 -0.0625
v 0.1875 0.5 0.0625
v 0.1875 0.5 -0.0625
v 0.1875 0.25 0.0625
v 0.1875 0.25 -0.0625
vt 0.390625 0.578125
vt 0.390625 0.640625
vt 0.359375 0.640625
vt 0.359375 0.578125
vt 0.03125 0.625
vt 0 0.625
vt 0 0.5625
vt 0.03125 0.5625
vt 0.453125 0.6875
vt 0.453125 0.65625
vt 0.484375 0.65625
vt 0.484375 0.6875
vt 0.484375 0.640625
vt 0.453125 0.640625
vt 0.453125 0.609375
vt 0.484375 0.609375
vt 0.125 0.625
vt 0.09375 0.625
vt 0.09375 0.5625
vt 0.125 0.5625
vt 0.171875 0.5625
vt 0.171875 0.625
vt 0.140625 0.625
vt 0.140625 0.5625
vn -1 0 0
vn 1 0 0
vn 0 1 0
vn 0 -1 0
vn 0 0 1
vn 0 0 -1
usemtl m_6d4f864b-60d5-6621-f77b-81e78341063c
f 159/509/129 157/510/129 158/511/129 160/512/129
f 162/513/130 161/514/130 163/515/130 164/516/130
f 158/517/131 157/518/131 161/519/131 162/520/131
f 163/521/132 159/522/132 160/523/132 164/524/132
f 161/525/133 157/526/133 159/527/133 163/528/133
f 160/529/134 158/530/134 162/531/134 164/532/134